<?xml version="1.0" encoding="UTF-8"?>
<svg xmlns="http://www.w3.org/2000/svg" id="Text" width="216" height="216" viewBox="0 0 1080 1080">
  <defs>
    <style>
      .cls-1, .cls-2 {
        fill: #1f3a89;
      }

      .cls-1, .cls-3 {
        fill-rule: evenodd;
      }

      .cls-3 {
        fill: #ad9237;
      }
    </style>
  </defs>
  <path id="Namibia_Statistics_Agency" data-name="Namibia Statistics Agency" class="cls-1" d="M178.149,779.086v41.142l-35.933-41.142H126.843v67.3h16.765V803.27l37.147,43.117h14.159v-67.3H178.149ZM249.5,837.715q-2.361,0-2.361-3.183V813.79q0-13.843-19.27-13.844a36.748,36.748,0,0,0-19.7,5.54v11.659q7.66-7.612,16.765-7.612,8.383,0,7.9,7.612-19.367,5.742-23.2,9.385a12.61,12.61,0,0,0-3.83,9.577,10.224,10.224,0,0,0,3.709,7.793,12.954,12.954,0,0,0,9.009,3.354q7.515,0,14.983-5.107,1.251,5.107,8,5.107,6.261,0,13.392-4.143v-7.949q-3.613,2.554-5.395,2.553h0Zm-24.57,1.06a4.34,4.34,0,0,1-3.276-1.426,4.784,4.784,0,0,1-1.348-3.407,6.127,6.127,0,0,1,2.673-5.1q2.674-2.005,9.852-4.519v11.02a11.854,11.854,0,0,1-7.9,3.432h0Zm36.18-37.865v45.477h14.308V815.852q5.3-6.318,10.935-6.319a8.256,8.256,0,0,1,6.336,2.557q2.383,2.556,2.384,7.332v26.965h14.26V817.251q5.022-7.717,11.3-7.718a7.593,7.593,0,0,1,6.181,2.677q2.221,2.678,2.222,7.5v26.676h14.308V817.163a16.482,16.482,0,0,0-4.966-12.442q-4.966-4.774-12.824-4.775-9.69,0-17.934,9.683-4.677-9.683-16.391-9.683-8.533,0-15.812,6.793V800.91H261.107Zm96.061-9.226a7.792,7.792,0,0,0,11.128,0,7.889,7.889,0,0,0-5.588-13.465,7.9,7.9,0,0,0-7.853,7.9A7.635,7.635,0,0,0,357.168,791.684Zm-1.542,9.226v45.477h14.308V800.91H355.626Zm26.256-21.824v67.3H396.19v-3.469a21.267,21.267,0,0,0,12.718,4.336,19.531,19.531,0,0,0,15.247-6.655q5.949-6.655,5.95-17.119,0-10.416-6.191-16.975T407.9,799.946a22.023,22.023,0,0,0-11.706,3.469V779.086H381.882Zm22.594,30.447a10.085,10.085,0,0,1,8.069,3.589q3.058,3.59,3.059,10.141,0,6.745-2.915,10.574a9.525,9.525,0,0,1-8.021,3.83q-4.143,0-8.478-3.854v-21.1q4.383-3.178,8.286-3.179h0Zm36.95-17.849a7.792,7.792,0,0,0,11.128,0,7.889,7.889,0,0,0-5.588-13.465,7.9,7.9,0,0,0-7.853,7.9A7.635,7.635,0,0,0,441.426,791.684Zm-1.542,9.226v45.477h14.308V800.91H439.884Zm67.493,36.805q-2.36,0-2.36-3.183V813.79q0-13.843-19.27-13.844a36.748,36.748,0,0,0-19.7,5.54v11.659q7.66-7.612,16.765-7.612,8.384,0,7.9,7.612-19.367,5.742-23.2,9.385a12.607,12.607,0,0,0-3.83,9.577,10.224,10.224,0,0,0,3.709,7.793,12.954,12.954,0,0,0,9.009,3.354q7.515,0,14.982-5.107,1.253,5.107,8,5.107,6.263,0,13.393-4.143v-7.949q-3.614,2.554-5.4,2.553h0Zm-24.569,1.06a4.34,4.34,0,0,1-3.276-1.426,4.785,4.785,0,0,1-1.349-3.407,6.128,6.128,0,0,1,2.674-5.1q2.674-2.005,9.852-4.519v11.02a11.854,11.854,0,0,1-7.9,3.432h0Zm87.775-60.556q-11.706,0-18.692,5.325a16.767,16.767,0,0,0-6.985,14q0,6.7,3.2,10.986a22.508,22.508,0,0,0,7.609,6.6,96.535,96.535,0,0,0,11.947,5.009q7.541,2.7,9.517,4.574a5.5,5.5,0,0,1,1.976,4q0,6.211-9.876,6.211a29.548,29.548,0,0,1-11.032-2.071,65.9,65.9,0,0,1-11.947-6.6v14.5a49.528,49.528,0,0,0,24.28,6.5q11.61,0,18.716-5.54a17.9,17.9,0,0,0,7.106-14.886,17.431,17.431,0,0,0-3.252-10.84,23.268,23.268,0,0,0-7.732-6.648,101.925,101.925,0,0,0-11.947-5.106q-7.469-2.747-9.4-4.481a4.96,4.96,0,0,1-1.927-3.661,4.538,4.538,0,0,1,2.674-4.023,14.6,14.6,0,0,1,7.2-1.517q7.95,0,21.342,6.022V783.422a57.313,57.313,0,0,0-22.787-5.2h0Zm51.21,22.691V786.6h-1.782L600.982,807.9v2.794h6.5V830.2q0,8.382,4.625,12.718t13.007,4.336a34.434,34.434,0,0,0,13.248-2.842V834.054a21.136,21.136,0,0,1-9.586,2.65,6.738,6.738,0,0,1-5.131-1.952,7.4,7.4,0,0,1-1.855-5.323v-18.74h16.572V800.91H621.793Zm64.988,36.805q-2.361,0-2.36-3.183V813.79q0-13.843-19.27-13.844a36.745,36.745,0,0,0-19.7,5.54v11.659q7.66-7.612,16.765-7.612,8.382,0,7.9,7.612-19.367,5.742-23.2,9.385a12.61,12.61,0,0,0-3.83,9.577,10.222,10.222,0,0,0,3.71,7.793,12.952,12.952,0,0,0,9.009,3.354q7.515,0,14.982-5.107,1.252,5.107,8,5.107,6.262,0,13.393-4.143v-7.949q-3.614,2.554-5.4,2.553h0Zm-24.569,1.06a4.34,4.34,0,0,1-3.276-1.426,4.785,4.785,0,0,1-1.349-3.407,6.126,6.126,0,0,1,2.674-5.1q2.673-2.005,9.852-4.519v11.02a11.854,11.854,0,0,1-7.9,3.432h0Zm51.981-37.865V786.6H712.41L693.381,807.9v2.794h6.5V830.2q0,8.382,4.625,12.718t13.007,4.336a34.437,34.437,0,0,0,13.248-2.842V834.054a21.136,21.136,0,0,1-9.587,2.65,6.738,6.738,0,0,1-5.13-1.952,7.4,7.4,0,0,1-1.855-5.323v-18.74h16.572V800.91H714.193Zm25.773-9.226a7.793,7.793,0,0,0,11.129,0,7.889,7.889,0,0,0-5.588-13.465,7.9,7.9,0,0,0-7.853,7.9A7.637,7.637,0,0,0,739.966,791.684Zm-1.541,9.226v45.477h14.308V800.91H738.425Zm43.02-.964q-8.48,0-13.657,3.907a12.334,12.334,0,0,0-2.481,17.746q2.7,3.423,10.013,6.286t8.6,4.016a3.312,3.312,0,0,1,1.284,2.451q0,3.363-6.937,3.363-5.926,0-14.694-3.854V843.93a38.114,38.114,0,0,0,16.283,3.324q8.913,0,13.73-3.858t4.818-10.947a12.97,12.97,0,0,0-2.987-8.246q-2.988-3.76-10.21-6.638T776.9,813.8a2.436,2.436,0,0,1-1.087-1.807q0-3.516,5.154-3.516,6.986,0,15.176,5.01V803.318a31.654,31.654,0,0,0-14.694-3.372h0Zm41.623,0.964V786.6h-1.782L802.257,807.9v2.794h6.5V830.2q0,8.382,4.625,12.718t13.007,4.336a34.442,34.442,0,0,0,13.249-2.842V834.054a21.139,21.139,0,0,1-9.587,2.65,6.738,6.738,0,0,1-5.131-1.952,7.4,7.4,0,0,1-1.855-5.323v-18.74h16.573V800.91H823.068Zm25.774-9.226a7.792,7.792,0,0,0,11.128,0,7.889,7.889,0,0,0-5.588-13.465,7.9,7.9,0,0,0-7.852,7.9A7.634,7.634,0,0,0,848.842,791.684ZM847.3,800.91v45.477h14.308V800.91H847.3Zm53.378,36.179A13.487,13.487,0,0,1,890.8,833.4a13.024,13.024,0,0,1-3.757-9.725,12.4,12.4,0,0,1,3.854-9.556q3.853-3.572,10.261-3.571a25.433,25.433,0,0,1,11.658,3.035V802.933a44.3,44.3,0,0,0-15.319-2.987q-11.226,0-18.475,6.727a22.3,22.3,0,0,0-7.251,17.1q0,10.61,7.178,17.048t19.174,6.437a45.5,45.5,0,0,0,15.368-3.035V833.958q-8.286,3.132-12.815,3.131h0Zm38.974-37.143q-8.48,0-13.658,3.907a12.334,12.334,0,0,0-2.481,17.746q2.7,3.423,10.014,6.286t8.6,4.016a3.312,3.312,0,0,1,1.284,2.451q0,3.363-6.938,3.363-5.925,0-14.693-3.854V843.93a38.114,38.114,0,0,0,16.283,3.324q8.912,0,13.73-3.858t4.817-10.947a12.969,12.969,0,0,0-2.986-8.246q-2.988-3.76-10.21-6.638T935.1,813.8a2.436,2.436,0,0,1-1.087-1.807q0-3.516,5.155-3.516,6.986,0,15.175,5.01V803.318a31.647,31.647,0,0,0-14.693-3.372h0ZM396.421,897.481l-27.185,67.3H387l5.025-13.3h30.139l5.545,13.3h18.028l-29.892-67.3H396.421Zm0.048,42.25,9.885-26.159,10.909,26.159H396.469ZM471.222,919.3q-9.924,0-15.127,5.011a15.61,15.61,0,0,0-5.2,11.562,12.989,12.989,0,0,0,3.613,9.2,15.905,15.905,0,0,0,9.154,4.818q-8.287,1.878-8.286,6.889,0,4.288,5.491,5.925-12.139,3.276-12.14,11.562,0,5.973,6.167,9.587t18.114,3.613q11.706,0,17.9-3.9a12.628,12.628,0,0,0,6.19-11.369,12.919,12.919,0,0,0-3.637-8.744q-3.637-4.071-12.911-4.866t-10.623-1.541a2.214,2.214,0,0,1-1.349-1.952,2.3,2.3,0,0,1,1.036-1.951q1.036-.746,8.768-1.589t11.683-5.324a14.494,14.494,0,0,0,3.95-9.779,14.887,14.887,0,0,0-2.264-7.564h6.5V919.3H471.222Zm7.113,10.768a7.45,7.45,0,0,1,2.329,5.516,8.612,8.612,0,0,1-2.4,6.118,7.631,7.631,0,0,1-5.763,2.553,7.971,7.971,0,0,1-5.813-2.433,7.842,7.842,0,0,1-2.449-5.757,8.05,8.05,0,0,1,2.377-5.877A8.487,8.487,0,0,1,478.335,930.072Zm-16.362,43.574q0-2.457,2.89-3.926a17.761,17.761,0,0,1,7.949-1.47q11.128,0,11.128,5.01,0,2.361-2.842,4.047a14.419,14.419,0,0,1-7.419,1.686q-11.706,0-11.706-5.347h0Zm69.42-16.476q-6.648,0-10.6-3.336t-4.384-9.527h32.663q0.433-11.85-6.287-18.908t-17.222-7.058q-10.455,0-17.2,6.7t-6.744,17.12q0,10.61,7.178,17.047t19.173,6.438q12.091,0,20.282-5.974v-9.009q-8.816,6.5-16.861,6.5h0Zm-4.818-30.3q8.719,0,9.876,9.924H516.7q1.059-9.924,9.876-9.924h0Zm31.748-7.564v45.478h14.308V935.443q4.913-7.515,9.972-7.515,7.082,0,7.081,9.117v27.737h14.308V935.847q0-8.439-4.745-12.973a16.452,16.452,0,0,0-11.827-4.533q-8.479,0-14.789,7.419V919.3H558.323Zm84.45,36.18a13.487,13.487,0,0,1-9.876-3.692,13.024,13.024,0,0,1-3.757-9.725,12.4,12.4,0,0,1,3.854-9.556q3.853-3.572,10.261-3.572a25.446,25.446,0,0,1,11.658,3.035V921.328a44.3,44.3,0,0,0-15.319-2.987q-11.226,0-18.475,6.727a22.3,22.3,0,0,0-7.251,17.1q0,10.61,7.178,17.047t19.174,6.438a45.5,45.5,0,0,0,15.368-3.035V952.353q-8.286,3.132-12.815,3.131h0ZM694.5,919.3l-10.27,23.428L674.608,919.3H659.346l17.787,38.044-13.355,29.257h15.249L709.5,919.3h-15Z"></path>
  <rect class="cls-2" x="390.969" y="321.281" width="98.656" height="400.469"></rect>
  <path id="Shape_1_copy" data-name="Shape 1 copy" class="cls-1" d="M509.944,248.736h98.663v473H509.944v-473Z"></path>
  <path id="Shape_1_copy_2" data-name="Shape 1 copy 2" class="cls-1" d="M628.919,132.662h98.663V721.735H628.919V132.662Z"></path>
  <path id="Shape_1_copy_3" data-name="Shape 1 copy 3" class="cls-1" d="M747.9,34h98.662V721.735H747.9V34Z"></path>
  <path id="Shape_1_copy_4" data-name="Shape 1 copy 4" class="cls-1" d="M271.994,408.337h98.662v313.4H271.994v-313.4Z"></path>
  <path id="Color_Fill_1" data-name="Color Fill 1" class="cls-3" d="M359.049,344.5S198.27,349.2,147.215,469.275C117.961,584.062,273.881,605.2,273.881,605.2s169.926,36.074,349.235-2.444,228.531-74.137,278.576-127.681c42.117-64.115-27.254-115.648-27.254-115.648s50.17,52.767-4.625,105.048S653.46,569.134,524.453,565.036,272.56,549.707,237.172,495.392C215.081,444.659,229.5,392.987,359.049,344.5Z"></path>
</svg>
